<svg version="1.1" id="Layer_1" xmlns="http://www.w3.org/2000/svg" xmlns:xlink="http://www.w3.org/1999/xlink" x="0px" y="0px"
	 width="100%" viewBox="0 0 192 192" enable-background="new 0 0 192 192" xml:space="preserve">
<path fill="#851919" opacity="1.000000" stroke="none" 
	d="
M138.000000,193.000000 
	C92.029640,193.000000 46.559273,193.000000 1.044455,193.000000 
	C1.044455,129.071350 1.044455,65.142662 1.044455,1.106986 
	C64.886826,1.106986 128.773895,1.106986 192.830475,1.106986 
	C192.830475,64.999626 192.830475,128.999786 192.830475,193.000000 
	C174.809616,193.000000 156.654800,193.000000 138.000000,193.000000 
M157.693665,93.606613 
	C157.539246,93.381073 157.327530,93.243942 156.115967,93.128609 
	C143.630936,93.100922 131.143906,92.937027 118.661926,93.119041 
	C114.262222,93.183197 112.656113,91.550583 112.950981,87.257568 
	C113.201355,83.612465 113.235817,79.917343 112.941093,76.278763 
	C112.559784,71.571198 114.240868,69.827248 119.121841,69.907776 
	C134.100067,70.154869 149.085175,69.973129 164.067581,69.987816 
	C166.806625,69.990501 168.999283,69.703720 168.976761,66.051491 
	C168.954422,62.425423 166.736511,62.077877 164.019791,62.078537 
	C146.040955,62.082912 128.062042,62.109650 110.083359,62.059456 
	C106.720268,62.050068 105.221138,63.530697 105.225739,66.862747 
	C105.253563,87.005615 105.234398,107.148544 105.248672,127.291428 
	C105.250450,129.797775 105.658112,131.926163 108.968597,132.027206 
	C112.427971,132.132751 113.199852,130.181320 113.193657,127.301712 
	C113.179703,120.809502 113.185379,114.316948 113.237617,107.824974 
	C113.287453,101.632935 113.708412,101.176086 119.739769,101.148590 
	C130.227280,101.100800 140.715256,101.156006 151.202835,101.116135 
	C157.949936,101.090485 158.048630,100.942299 157.693665,93.606613 
M83.963135,105.920486 
	C92.379608,103.722839 94.889778,100.520309 94.933495,91.815781 
	C94.961937,86.149513 95.019455,80.481079 94.902290,74.816956 
	C94.740395,66.991089 90.315933,62.328255 82.428917,62.248726 
	C64.931473,62.072285 47.431015,62.214035 29.932089,62.146942 
	C26.412704,62.133450 24.786356,63.464474 24.801491,67.154083 
	C24.883528,87.152885 24.844555,107.152206 24.836929,127.151344 
	C24.835875,129.917206 25.298069,132.113388 28.885357,132.027466 
	C32.577732,131.939041 32.650864,129.412598 32.684162,126.836723 
	C32.753101,121.504364 32.803993,116.170357 32.746040,110.838295 
	C32.709667,107.491577 34.150906,106.005325 37.555061,106.057434 
	C44.553009,106.164581 51.569115,105.831429 58.544140,106.245537 
	C60.699486,106.373512 63.257473,107.873337 64.752327,109.535416 
	C70.649399,116.092163 76.404526,122.802765 81.797119,129.777313 
	C85.071846,134.012695 88.574585,133.303482 93.819618,131.859299 
	C86.696556,123.171715 80.184929,115.229851 73.673294,107.287979 
	C73.877167,106.853722 74.081047,106.419456 74.284927,105.985199 
	C77.221664,105.985199 80.158409,105.985199 83.963135,105.920486 
z"/>
<path fill="#232222" opacity="1.000000" stroke="none" 
	d="
M83.529144,105.952843 
	C80.158409,105.985199 77.221664,105.985199 74.284927,105.985199 
	C74.081047,106.419456 73.877167,106.853722 73.673294,107.287979 
	C80.184929,115.229851 86.696556,123.171715 93.819618,131.859299 
	C88.574585,133.303482 85.071846,134.012695 81.797119,129.777313 
	C76.404526,122.802765 70.649399,116.092163 64.752327,109.535416 
	C63.257473,107.873337 60.699486,106.373512 58.544140,106.245537 
	C51.569115,105.831429 44.553009,106.164581 37.555061,106.057434 
	C34.150906,106.005325 32.709667,107.491577 32.746040,110.838295 
	C32.803993,116.170357 32.753101,121.504364 32.684162,126.836723 
	C32.650864,129.412598 32.577732,131.939041 28.885357,132.027466 
	C25.298069,132.113388 24.835875,129.917206 24.836929,127.151344 
	C24.844555,107.152206 24.883528,87.152885 24.801491,67.154083 
	C24.786356,63.464474 26.412704,62.133450 29.932089,62.146942 
	C47.431015,62.214035 64.931473,62.072285 82.428917,62.248726 
	C90.315933,62.328255 94.740395,66.991089 94.902290,74.816956 
	C95.019455,80.481079 94.961937,86.149513 94.933495,91.815781 
	C94.889778,100.520309 92.379608,103.722839 83.529144,105.952843 
M41.682648,70.011810 
	C32.419888,70.108551 32.023033,70.496574 32.009197,79.545258 
	C32.003338,83.376511 31.970354,87.208420 32.026505,91.038895 
	C32.107384,96.556259 33.341362,98.008980 38.714909,98.049316 
	C52.706387,98.154358 66.699364,98.044075 80.691376,98.104042 
	C84.400078,98.119934 86.212242,96.731003 86.085213,92.784485 
	C85.903114,87.126839 85.879303,81.452652 86.095573,75.797295 
	C86.263924,71.395081 84.298431,69.935219 80.117584,69.977287 
	C67.625641,70.102989 55.131550,70.015289 41.682648,70.011810 
z"/>
<path fill="#232222" opacity="1.000000" stroke="none" 
	d="
M157.844238,93.963478 
	C158.048630,100.942299 157.949936,101.090485 151.202835,101.116135 
	C140.715256,101.156006 130.227280,101.100800 119.739769,101.148590 
	C113.708412,101.176086 113.287453,101.632935 113.237617,107.824974 
	C113.185379,114.316948 113.179703,120.809502 113.193657,127.301712 
	C113.199852,130.181320 112.427971,132.132751 108.968597,132.027206 
	C105.658112,131.926163 105.250450,129.797775 105.248672,127.291428 
	C105.234398,107.148544 105.253563,87.005615 105.225739,66.862747 
	C105.221138,63.530697 106.720268,62.050068 110.083359,62.059456 
	C128.062042,62.109650 146.040955,62.082912 164.019791,62.078537 
	C166.736511,62.077877 168.954422,62.425423 168.976761,66.051491 
	C168.999283,69.703720 166.806625,69.990501 164.067581,69.987816 
	C149.085175,69.973129 134.100067,70.154869 119.121841,69.907776 
	C114.240868,69.827248 112.559784,71.571198 112.941093,76.278763 
	C113.235817,79.917343 113.201355,83.612465 112.950981,87.257568 
	C112.656113,91.550583 114.262222,93.183197 118.661926,93.119041 
	C131.143906,92.937027 143.630936,93.100922 156.712097,93.294891 
	C157.479736,93.636269 157.658401,93.803703 157.844238,93.963478 
z"/>
<path fill="#302121" opacity="1.000000" stroke="none" 
	d="
M157.768951,93.785049 
	C157.658401,93.803703 157.479736,93.636269 157.183380,93.328194 
	C157.327530,93.243942 157.539246,93.381073 157.768951,93.785049 
z"/>
<path fill="#851919" opacity="1.000000" stroke="none" 
	d="
M42.160473,70.011368 
	C55.131550,70.015289 67.625641,70.102989 80.117584,69.977287 
	C84.298431,69.935219 86.263924,71.395081 86.095573,75.797295 
	C85.879303,81.452652 85.903114,87.126839 86.085213,92.784485 
	C86.212242,96.731003 84.400078,98.119934 80.691376,98.104042 
	C66.699364,98.044075 52.706387,98.154358 38.714909,98.049316 
	C33.341362,98.008980 32.107384,96.556259 32.026505,91.038895 
	C31.970354,87.208420 32.003338,83.376511 32.009197,79.545258 
	C32.023033,70.496574 32.419888,70.108551 42.160473,70.011368 
z"/>
</svg>